<svg width="17" height="17" viewBox="0 0 17 17" fill="none" xmlns="http://www.w3.org/2000/svg">
<path fill-rule="evenodd" clip-rule="evenodd" d="M2.00325 0.542081C2.18915 0.356442 2.41239 0.212434 2.65815 0.119601C2.90392 0.0267677 3.1666 -0.0127708 3.4288 0.00360546C3.691 0.0199817 3.94673 0.0918987 4.17904 0.214591C4.41134 0.337283 4.61492 0.507948 4.77629 0.715276L6.68342 3.16551C7.03297 3.61497 7.15621 4.20044 7.01809 4.75296L6.43692 7.07994C6.40688 7.20047 6.4085 7.32671 6.44164 7.44643C6.47477 7.56614 6.5383 7.67525 6.62604 7.76316L9.23652 10.3738C9.32454 10.4618 9.43382 10.5254 9.55373 10.5586C9.67363 10.5917 9.80008 10.5932 9.92075 10.563L12.2465 9.98176C12.5191 9.91359 12.8037 9.90829 13.0787 9.96628C13.3537 10.0243 13.6119 10.144 13.8338 10.3165L16.2839 12.2227C17.1647 12.908 17.2454 14.2096 16.457 14.997L15.3585 16.0957C14.5722 16.882 13.3971 17.2273 12.3017 16.8416C9.49809 15.855 6.95251 14.2498 4.85385 12.1451C2.74941 10.0466 1.14436 7.5012 0.157745 4.69771C-0.226868 3.60328 0.118434 2.42704 0.90466 1.64076L2.00325 0.542081Z" fill="#333333"/>
</svg>
